G04 #@! TF.GenerationSoftware,KiCad,Pcbnew,(5.1.10)-1*
G04 #@! TF.CreationDate,2022-10-05T22:38:21+02:00*
G04 #@! TF.ProjectId,new_rs422_module_kicad,6e65775f-7273-4343-9232-5f6d6f64756c,rev?*
G04 #@! TF.SameCoordinates,Original*
G04 #@! TF.FileFunction,Legend,Bot*
G04 #@! TF.FilePolarity,Positive*
%FSLAX46Y46*%
G04 Gerber Fmt 4.6, Leading zero omitted, Abs format (unit mm)*
G04 Created by KiCad (PCBNEW (5.1.10)-1) date 2022-10-05 22:38:21*
%MOMM*%
%LPD*%
G01*
G04 APERTURE LIST*
%ADD10C,0.300000*%
%ADD11O,1.700000X1.700000*%
%ADD12R,1.700000X1.700000*%
%ADD13C,5.500000*%
%ADD14C,1.500000*%
G04 APERTURE END LIST*
D10*
X78296428Y-53148571D02*
X76796428Y-52791428D01*
X77867857Y-52505714D01*
X76796428Y-52220000D01*
X78296428Y-51862857D01*
X76796428Y-50648571D02*
X77582142Y-50648571D01*
X77725000Y-50720000D01*
X77796428Y-50862857D01*
X77796428Y-51148571D01*
X77725000Y-51291428D01*
X76867857Y-50648571D02*
X76796428Y-50791428D01*
X76796428Y-51148571D01*
X76867857Y-51291428D01*
X77010714Y-51362857D01*
X77153571Y-51362857D01*
X77296428Y-51291428D01*
X77367857Y-51148571D01*
X77367857Y-50791428D01*
X77439285Y-50648571D01*
X77796428Y-50148571D02*
X77796428Y-49577142D01*
X78296428Y-49934285D02*
X77010714Y-49934285D01*
X76867857Y-49862857D01*
X76796428Y-49720000D01*
X76796428Y-49577142D01*
X76867857Y-48505714D02*
X76796428Y-48648571D01*
X76796428Y-48934285D01*
X76867857Y-49077142D01*
X77010714Y-49148571D01*
X77582142Y-49148571D01*
X77725000Y-49077142D01*
X77796428Y-48934285D01*
X77796428Y-48648571D01*
X77725000Y-48505714D01*
X77582142Y-48434285D01*
X77439285Y-48434285D01*
X77296428Y-49148571D01*
X76796428Y-47791428D02*
X77796428Y-47791428D01*
X77510714Y-47791428D02*
X77653571Y-47720000D01*
X77725000Y-47648571D01*
X77796428Y-47505714D01*
X77796428Y-47362857D01*
X76796428Y-45720000D02*
X78296428Y-45720000D01*
X77225000Y-45220000D01*
X78296428Y-44720000D01*
X76796428Y-44720000D01*
X76796428Y-44005714D02*
X77796428Y-44005714D01*
X78296428Y-44005714D02*
X78225000Y-44077142D01*
X78153571Y-44005714D01*
X78225000Y-43934285D01*
X78296428Y-44005714D01*
X78153571Y-44005714D01*
X77796428Y-43291428D02*
X76796428Y-43291428D01*
X77653571Y-43291428D02*
X77725000Y-43220000D01*
X77796428Y-43077142D01*
X77796428Y-42862857D01*
X77725000Y-42720000D01*
X77582142Y-42648571D01*
X76796428Y-42648571D01*
X76796428Y-41934285D02*
X77796428Y-41934285D01*
X78296428Y-41934285D02*
X78225000Y-42005714D01*
X78153571Y-41934285D01*
X78225000Y-41862857D01*
X78296428Y-41934285D01*
X78153571Y-41934285D01*
X76796428Y-41005714D02*
X76867857Y-41148571D01*
X77010714Y-41220000D01*
X78296428Y-41220000D01*
X76796428Y-39791428D02*
X77582142Y-39791428D01*
X77725000Y-39862857D01*
X77796428Y-40005714D01*
X77796428Y-40291428D01*
X77725000Y-40434285D01*
X76867857Y-39791428D02*
X76796428Y-39934285D01*
X76796428Y-40291428D01*
X76867857Y-40434285D01*
X77010714Y-40505714D01*
X77153571Y-40505714D01*
X77296428Y-40434285D01*
X77367857Y-40291428D01*
X77367857Y-39934285D01*
X77439285Y-39791428D01*
X76796428Y-39077142D02*
X78296428Y-39077142D01*
X77725000Y-39077142D02*
X77796428Y-38934285D01*
X77796428Y-38648571D01*
X77725000Y-38505714D01*
X77653571Y-38434285D01*
X77510714Y-38362857D01*
X77082142Y-38362857D01*
X76939285Y-38434285D01*
X76867857Y-38505714D01*
X76796428Y-38648571D01*
X76796428Y-38934285D01*
X76867857Y-39077142D01*
X74246428Y-52755714D02*
X74960714Y-53255714D01*
X74246428Y-53612857D02*
X75746428Y-53612857D01*
X75746428Y-53041428D01*
X75675000Y-52898571D01*
X75603571Y-52827142D01*
X75460714Y-52755714D01*
X75246428Y-52755714D01*
X75103571Y-52827142D01*
X75032142Y-52898571D01*
X74960714Y-53041428D01*
X74960714Y-53612857D01*
X74317857Y-52184285D02*
X74246428Y-51970000D01*
X74246428Y-51612857D01*
X74317857Y-51470000D01*
X74389285Y-51398571D01*
X74532142Y-51327142D01*
X74675000Y-51327142D01*
X74817857Y-51398571D01*
X74889285Y-51470000D01*
X74960714Y-51612857D01*
X75032142Y-51898571D01*
X75103571Y-52041428D01*
X75175000Y-52112857D01*
X75317857Y-52184285D01*
X75460714Y-52184285D01*
X75603571Y-52112857D01*
X75675000Y-52041428D01*
X75746428Y-51898571D01*
X75746428Y-51541428D01*
X75675000Y-51327142D01*
X75246428Y-50041428D02*
X74246428Y-50041428D01*
X75817857Y-50398571D02*
X74746428Y-50755714D01*
X74746428Y-49827142D01*
X75603571Y-49327142D02*
X75675000Y-49255714D01*
X75746428Y-49112857D01*
X75746428Y-48755714D01*
X75675000Y-48612857D01*
X75603571Y-48541428D01*
X75460714Y-48470000D01*
X75317857Y-48470000D01*
X75103571Y-48541428D01*
X74246428Y-49398571D01*
X74246428Y-48470000D01*
X75603571Y-47898571D02*
X75675000Y-47827142D01*
X75746428Y-47684285D01*
X75746428Y-47327142D01*
X75675000Y-47184285D01*
X75603571Y-47112857D01*
X75460714Y-47041428D01*
X75317857Y-47041428D01*
X75103571Y-47112857D01*
X74246428Y-47970000D01*
X74246428Y-47041428D01*
X74246428Y-45255714D02*
X75246428Y-45255714D01*
X75103571Y-45255714D02*
X75175000Y-45184285D01*
X75246428Y-45041428D01*
X75246428Y-44827142D01*
X75175000Y-44684285D01*
X75032142Y-44612857D01*
X74246428Y-44612857D01*
X75032142Y-44612857D02*
X75175000Y-44541428D01*
X75246428Y-44398571D01*
X75246428Y-44184285D01*
X75175000Y-44041428D01*
X75032142Y-43970000D01*
X74246428Y-43970000D01*
X74246428Y-43041428D02*
X74317857Y-43184285D01*
X74389285Y-43255714D01*
X74532142Y-43327142D01*
X74960714Y-43327142D01*
X75103571Y-43255714D01*
X75175000Y-43184285D01*
X75246428Y-43041428D01*
X75246428Y-42827142D01*
X75175000Y-42684285D01*
X75103571Y-42612857D01*
X74960714Y-42541428D01*
X74532142Y-42541428D01*
X74389285Y-42612857D01*
X74317857Y-42684285D01*
X74246428Y-42827142D01*
X74246428Y-43041428D01*
X74246428Y-41255714D02*
X75746428Y-41255714D01*
X74317857Y-41255714D02*
X74246428Y-41398571D01*
X74246428Y-41684285D01*
X74317857Y-41827142D01*
X74389285Y-41898571D01*
X74532142Y-41970000D01*
X74960714Y-41970000D01*
X75103571Y-41898571D01*
X75175000Y-41827142D01*
X75246428Y-41684285D01*
X75246428Y-41398571D01*
X75175000Y-41255714D01*
X75246428Y-39898571D02*
X74246428Y-39898571D01*
X75246428Y-40541428D02*
X74460714Y-40541428D01*
X74317857Y-40470000D01*
X74246428Y-40327142D01*
X74246428Y-40112857D01*
X74317857Y-39970000D01*
X74389285Y-39898571D01*
X74246428Y-38970000D02*
X74317857Y-39112857D01*
X74460714Y-39184285D01*
X75746428Y-39184285D01*
X74317857Y-37827142D02*
X74246428Y-37970000D01*
X74246428Y-38255714D01*
X74317857Y-38398571D01*
X74460714Y-38470000D01*
X75032142Y-38470000D01*
X75175000Y-38398571D01*
X75246428Y-38255714D01*
X75246428Y-37970000D01*
X75175000Y-37827142D01*
X75032142Y-37755714D01*
X74889285Y-37755714D01*
X74746428Y-38470000D01*
%LPC*%
D11*
X31750000Y-41910000D03*
X31750000Y-39370000D03*
X31750000Y-36830000D03*
D12*
X31750000Y-34290000D03*
D13*
X68510000Y-33225000D03*
X68510000Y-58215000D03*
D14*
X69930000Y-49875000D03*
X69930000Y-47105000D03*
X69930000Y-44335000D03*
X69930000Y-41565000D03*
X67090000Y-51260000D03*
X67090000Y-48490000D03*
X67090000Y-45720000D03*
X67090000Y-42950000D03*
X67090000Y-40180000D03*
M02*
