G04 #@! TF.GenerationSoftware,KiCad,Pcbnew,(5.1.10)-1*
G04 #@! TF.CreationDate,2022-10-05T22:38:21+02:00*
G04 #@! TF.ProjectId,new_rs422_module_kicad,6e65775f-7273-4343-9232-5f6d6f64756c,rev?*
G04 #@! TF.SameCoordinates,Original*
G04 #@! TF.FileFunction,Copper,L2,Bot*
G04 #@! TF.FilePolarity,Positive*
%FSLAX46Y46*%
G04 Gerber Fmt 4.6, Leading zero omitted, Abs format (unit mm)*
G04 Created by KiCad (PCBNEW (5.1.10)-1) date 2022-10-05 22:38:21*
%MOMM*%
%LPD*%
G01*
G04 APERTURE LIST*
G04 #@! TA.AperFunction,ComponentPad*
%ADD10O,1.700000X1.700000*%
G04 #@! TD*
G04 #@! TA.AperFunction,ComponentPad*
%ADD11R,1.700000X1.700000*%
G04 #@! TD*
G04 #@! TA.AperFunction,ComponentPad*
%ADD12C,5.500000*%
G04 #@! TD*
G04 #@! TA.AperFunction,ComponentPad*
%ADD13C,1.500000*%
G04 #@! TD*
G04 #@! TA.AperFunction,ViaPad*
%ADD14C,0.800000*%
G04 #@! TD*
G04 #@! TA.AperFunction,Conductor*
%ADD15C,0.250000*%
G04 #@! TD*
G04 #@! TA.AperFunction,Conductor*
%ADD16C,0.254000*%
G04 #@! TD*
G04 #@! TA.AperFunction,Conductor*
%ADD17C,0.100000*%
G04 #@! TD*
G04 APERTURE END LIST*
D10*
X31750000Y-41910000D03*
X31750000Y-39370000D03*
X31750000Y-36830000D03*
D11*
X31750000Y-34290000D03*
D12*
X68510000Y-33225000D03*
X68510000Y-58215000D03*
D13*
X69930000Y-49875000D03*
X69930000Y-47105000D03*
X69930000Y-44335000D03*
X69930000Y-41565000D03*
X67090000Y-51260000D03*
X67090000Y-48490000D03*
X67090000Y-45720000D03*
X67090000Y-42950000D03*
X67090000Y-40180000D03*
D14*
X42905000Y-49425000D03*
X38797500Y-35725000D03*
X64770000Y-44450000D03*
X64770000Y-52070000D03*
X64770000Y-48260000D03*
X55880000Y-40640000D03*
X38100000Y-50800000D03*
X39370000Y-48260000D03*
D15*
X55880000Y-40640000D02*
X57150000Y-41910000D01*
X57150000Y-41910000D02*
X57150000Y-48260000D01*
X60150000Y-51260000D02*
X67090000Y-51260000D01*
X57150000Y-48260000D02*
X60150000Y-51260000D01*
X38100000Y-50800000D02*
X39370000Y-49530000D01*
X39370000Y-49530000D02*
X39370000Y-48260000D01*
X39370000Y-48260000D02*
X35560000Y-48260000D01*
X31750000Y-44450000D02*
X31750000Y-41910000D01*
X35560000Y-48260000D02*
X31750000Y-44450000D01*
D16*
X65880698Y-31067188D02*
X65510252Y-31621601D01*
X65255083Y-32237632D01*
X65125000Y-32891607D01*
X65125000Y-33558393D01*
X65255083Y-34212368D01*
X65510252Y-34828399D01*
X65880698Y-35382812D01*
X66352188Y-35854302D01*
X66906601Y-36224748D01*
X67522632Y-36479917D01*
X68176607Y-36610000D01*
X68843393Y-36610000D01*
X69497368Y-36479917D01*
X70113399Y-36224748D01*
X70667812Y-35854302D01*
X71139302Y-35382812D01*
X71509748Y-34828399D01*
X71764917Y-34212368D01*
X71895000Y-33558393D01*
X71895000Y-32891607D01*
X71764917Y-32237632D01*
X71509748Y-31621601D01*
X71139302Y-31067188D01*
X70732114Y-30660000D01*
X77967721Y-30660000D01*
X78259659Y-30688625D01*
X78509429Y-30764035D01*
X78739792Y-30886522D01*
X78941980Y-31051422D01*
X79108286Y-31252450D01*
X79232378Y-31481954D01*
X79309531Y-31731195D01*
X79340001Y-32021098D01*
X79340000Y-59737721D01*
X79311375Y-60029660D01*
X79235965Y-60279429D01*
X79113477Y-60509794D01*
X78948579Y-60711979D01*
X78747546Y-60878288D01*
X78518046Y-61002378D01*
X78268805Y-61079531D01*
X77978911Y-61110000D01*
X70270166Y-61110000D01*
X70667812Y-60844302D01*
X71139302Y-60372812D01*
X71509748Y-59818399D01*
X71764917Y-59202368D01*
X71895000Y-58548393D01*
X71895000Y-57881607D01*
X71764917Y-57227632D01*
X71509748Y-56611601D01*
X71139302Y-56057188D01*
X70667812Y-55585698D01*
X70113399Y-55215252D01*
X69497368Y-54960083D01*
X68843393Y-54830000D01*
X68176607Y-54830000D01*
X67522632Y-54960083D01*
X66906601Y-55215252D01*
X66352188Y-55585698D01*
X65880698Y-56057188D01*
X65510252Y-56611601D01*
X65255083Y-57227632D01*
X65125000Y-57881607D01*
X65125000Y-58548393D01*
X65255083Y-59202368D01*
X65510252Y-59818399D01*
X65880698Y-60372812D01*
X66352188Y-60844302D01*
X66749834Y-61110000D01*
X32032279Y-61110000D01*
X31740340Y-61081375D01*
X31490571Y-61005965D01*
X31260206Y-60883477D01*
X31058021Y-60718579D01*
X30891712Y-60517546D01*
X30767622Y-60288046D01*
X30690469Y-60038805D01*
X30660000Y-59748911D01*
X30660000Y-42920107D01*
X30803368Y-43063475D01*
X30990000Y-43188179D01*
X30990000Y-44412677D01*
X30986324Y-44450000D01*
X30990000Y-44487322D01*
X30990000Y-44487332D01*
X31000997Y-44598985D01*
X31043466Y-44738989D01*
X31044454Y-44742246D01*
X31115026Y-44874276D01*
X31154871Y-44922826D01*
X31209999Y-44990001D01*
X31239003Y-45013804D01*
X34996200Y-48771002D01*
X35019999Y-48800001D01*
X35135724Y-48894974D01*
X35267753Y-48965546D01*
X35411014Y-49009003D01*
X35522667Y-49020000D01*
X35522675Y-49020000D01*
X35560000Y-49023676D01*
X35597325Y-49020000D01*
X38610000Y-49020000D01*
X38610000Y-49215198D01*
X38060199Y-49765000D01*
X37998061Y-49765000D01*
X37798102Y-49804774D01*
X37609744Y-49882795D01*
X37440226Y-49996063D01*
X37296063Y-50140226D01*
X37182795Y-50309744D01*
X37104774Y-50498102D01*
X37065000Y-50698061D01*
X37065000Y-50901939D01*
X37104774Y-51101898D01*
X37182795Y-51290256D01*
X37296063Y-51459774D01*
X37440226Y-51603937D01*
X37609744Y-51717205D01*
X37798102Y-51795226D01*
X37998061Y-51835000D01*
X38201939Y-51835000D01*
X38401898Y-51795226D01*
X38590256Y-51717205D01*
X38759774Y-51603937D01*
X38903937Y-51459774D01*
X39017205Y-51290256D01*
X39095226Y-51101898D01*
X39135000Y-50901939D01*
X39135000Y-50839801D01*
X39881004Y-50093798D01*
X39910001Y-50070001D01*
X40004974Y-49954276D01*
X40075546Y-49822247D01*
X40119003Y-49678986D01*
X40130000Y-49567333D01*
X40130000Y-49567324D01*
X40133676Y-49530001D01*
X40130000Y-49492678D01*
X40130000Y-48963711D01*
X40173937Y-48919774D01*
X40287205Y-48750256D01*
X40365226Y-48561898D01*
X40405000Y-48361939D01*
X40405000Y-48158061D01*
X40365226Y-47958102D01*
X40287205Y-47769744D01*
X40173937Y-47600226D01*
X40029774Y-47456063D01*
X39860256Y-47342795D01*
X39671898Y-47264774D01*
X39471939Y-47225000D01*
X39268061Y-47225000D01*
X39068102Y-47264774D01*
X38879744Y-47342795D01*
X38710226Y-47456063D01*
X38666289Y-47500000D01*
X35874802Y-47500000D01*
X32510000Y-44135199D01*
X32510000Y-43188178D01*
X32696632Y-43063475D01*
X32903475Y-42856632D01*
X33065990Y-42613411D01*
X33177932Y-42343158D01*
X33235000Y-42056260D01*
X33235000Y-41763740D01*
X33177932Y-41476842D01*
X33065990Y-41206589D01*
X32903475Y-40963368D01*
X32696632Y-40756525D01*
X32522240Y-40640000D01*
X32674802Y-40538061D01*
X54845000Y-40538061D01*
X54845000Y-40741939D01*
X54884774Y-40941898D01*
X54962795Y-41130256D01*
X55076063Y-41299774D01*
X55220226Y-41443937D01*
X55389744Y-41557205D01*
X55578102Y-41635226D01*
X55778061Y-41675000D01*
X55840199Y-41675000D01*
X56390000Y-42224802D01*
X56390001Y-48222667D01*
X56386324Y-48260000D01*
X56400998Y-48408985D01*
X56444454Y-48552246D01*
X56515026Y-48684276D01*
X56569175Y-48750256D01*
X56610000Y-48800001D01*
X56638998Y-48823799D01*
X59586201Y-51771003D01*
X59609999Y-51800001D01*
X59725724Y-51894974D01*
X59857753Y-51965546D01*
X60001014Y-52009003D01*
X60112667Y-52020000D01*
X60112675Y-52020000D01*
X60150000Y-52023676D01*
X60187325Y-52020000D01*
X65932091Y-52020000D01*
X66014201Y-52142886D01*
X66207114Y-52335799D01*
X66433957Y-52487371D01*
X66686011Y-52591775D01*
X66953589Y-52645000D01*
X67226411Y-52645000D01*
X67493989Y-52591775D01*
X67746043Y-52487371D01*
X67972886Y-52335799D01*
X68165799Y-52142886D01*
X68317371Y-51916043D01*
X68421775Y-51663989D01*
X68475000Y-51396411D01*
X68475000Y-51123589D01*
X68421775Y-50856011D01*
X68317371Y-50603957D01*
X68165799Y-50377114D01*
X67972886Y-50184201D01*
X67746043Y-50032629D01*
X67493989Y-49928225D01*
X67226411Y-49875000D01*
X67493989Y-49821775D01*
X67746043Y-49717371D01*
X67972886Y-49565799D01*
X68165799Y-49372886D01*
X68317371Y-49146043D01*
X68421775Y-48893989D01*
X68475000Y-48626411D01*
X68475000Y-48353589D01*
X68421775Y-48086011D01*
X68317371Y-47833957D01*
X68165799Y-47607114D01*
X67972886Y-47414201D01*
X67746043Y-47262629D01*
X67493989Y-47158225D01*
X67226411Y-47105000D01*
X67493989Y-47051775D01*
X67746043Y-46947371D01*
X67972886Y-46795799D01*
X68165799Y-46602886D01*
X68317371Y-46376043D01*
X68421775Y-46123989D01*
X68475000Y-45856411D01*
X68475000Y-45583589D01*
X68421775Y-45316011D01*
X68317371Y-45063957D01*
X68165799Y-44837114D01*
X67972886Y-44644201D01*
X67746043Y-44492629D01*
X67493989Y-44388225D01*
X67226411Y-44335000D01*
X67493989Y-44281775D01*
X67746043Y-44177371D01*
X67972886Y-44025799D01*
X68165799Y-43832886D01*
X68317371Y-43606043D01*
X68421775Y-43353989D01*
X68475000Y-43086411D01*
X68475000Y-42813589D01*
X68421775Y-42546011D01*
X68317371Y-42293957D01*
X68165799Y-42067114D01*
X67972886Y-41874201D01*
X67746043Y-41722629D01*
X67493989Y-41618225D01*
X67226411Y-41565000D01*
X67493989Y-41511775D01*
X67694818Y-41428589D01*
X68545000Y-41428589D01*
X68545000Y-41701411D01*
X68598225Y-41968989D01*
X68702629Y-42221043D01*
X68854201Y-42447886D01*
X69047114Y-42640799D01*
X69273957Y-42792371D01*
X69526011Y-42896775D01*
X69793589Y-42950000D01*
X69526011Y-43003225D01*
X69273957Y-43107629D01*
X69047114Y-43259201D01*
X68854201Y-43452114D01*
X68702629Y-43678957D01*
X68598225Y-43931011D01*
X68545000Y-44198589D01*
X68545000Y-44471411D01*
X68598225Y-44738989D01*
X68702629Y-44991043D01*
X68854201Y-45217886D01*
X69047114Y-45410799D01*
X69273957Y-45562371D01*
X69526011Y-45666775D01*
X69793589Y-45720000D01*
X69526011Y-45773225D01*
X69273957Y-45877629D01*
X69047114Y-46029201D01*
X68854201Y-46222114D01*
X68702629Y-46448957D01*
X68598225Y-46701011D01*
X68545000Y-46968589D01*
X68545000Y-47241411D01*
X68598225Y-47508989D01*
X68702629Y-47761043D01*
X68854201Y-47987886D01*
X69047114Y-48180799D01*
X69273957Y-48332371D01*
X69526011Y-48436775D01*
X69793589Y-48490000D01*
X69526011Y-48543225D01*
X69273957Y-48647629D01*
X69047114Y-48799201D01*
X68854201Y-48992114D01*
X68702629Y-49218957D01*
X68598225Y-49471011D01*
X68545000Y-49738589D01*
X68545000Y-50011411D01*
X68598225Y-50278989D01*
X68702629Y-50531043D01*
X68854201Y-50757886D01*
X69047114Y-50950799D01*
X69273957Y-51102371D01*
X69526011Y-51206775D01*
X69793589Y-51260000D01*
X70066411Y-51260000D01*
X70333989Y-51206775D01*
X70586043Y-51102371D01*
X70812886Y-50950799D01*
X71005799Y-50757886D01*
X71157371Y-50531043D01*
X71261775Y-50278989D01*
X71315000Y-50011411D01*
X71315000Y-49738589D01*
X71261775Y-49471011D01*
X71157371Y-49218957D01*
X71005799Y-48992114D01*
X70812886Y-48799201D01*
X70586043Y-48647629D01*
X70333989Y-48543225D01*
X70066411Y-48490000D01*
X70333989Y-48436775D01*
X70586043Y-48332371D01*
X70812886Y-48180799D01*
X71005799Y-47987886D01*
X71157371Y-47761043D01*
X71261775Y-47508989D01*
X71315000Y-47241411D01*
X71315000Y-46968589D01*
X71261775Y-46701011D01*
X71157371Y-46448957D01*
X71005799Y-46222114D01*
X70812886Y-46029201D01*
X70586043Y-45877629D01*
X70333989Y-45773225D01*
X70066411Y-45720000D01*
X70333989Y-45666775D01*
X70586043Y-45562371D01*
X70812886Y-45410799D01*
X71005799Y-45217886D01*
X71157371Y-44991043D01*
X71261775Y-44738989D01*
X71315000Y-44471411D01*
X71315000Y-44198589D01*
X71261775Y-43931011D01*
X71157371Y-43678957D01*
X71005799Y-43452114D01*
X70812886Y-43259201D01*
X70586043Y-43107629D01*
X70333989Y-43003225D01*
X70066411Y-42950000D01*
X70333989Y-42896775D01*
X70586043Y-42792371D01*
X70812886Y-42640799D01*
X71005799Y-42447886D01*
X71157371Y-42221043D01*
X71261775Y-41968989D01*
X71315000Y-41701411D01*
X71315000Y-41428589D01*
X71261775Y-41161011D01*
X71157371Y-40908957D01*
X71005799Y-40682114D01*
X70812886Y-40489201D01*
X70586043Y-40337629D01*
X70333989Y-40233225D01*
X70066411Y-40180000D01*
X69793589Y-40180000D01*
X69526011Y-40233225D01*
X69273957Y-40337629D01*
X69047114Y-40489201D01*
X68854201Y-40682114D01*
X68702629Y-40908957D01*
X68598225Y-41161011D01*
X68545000Y-41428589D01*
X67694818Y-41428589D01*
X67746043Y-41407371D01*
X67972886Y-41255799D01*
X68165799Y-41062886D01*
X68317371Y-40836043D01*
X68421775Y-40583989D01*
X68475000Y-40316411D01*
X68475000Y-40043589D01*
X68421775Y-39776011D01*
X68317371Y-39523957D01*
X68165799Y-39297114D01*
X67972886Y-39104201D01*
X67746043Y-38952629D01*
X67493989Y-38848225D01*
X67226411Y-38795000D01*
X66953589Y-38795000D01*
X66686011Y-38848225D01*
X66433957Y-38952629D01*
X66207114Y-39104201D01*
X66014201Y-39297114D01*
X65862629Y-39523957D01*
X65758225Y-39776011D01*
X65705000Y-40043589D01*
X65705000Y-40316411D01*
X65758225Y-40583989D01*
X65862629Y-40836043D01*
X66014201Y-41062886D01*
X66207114Y-41255799D01*
X66433957Y-41407371D01*
X66686011Y-41511775D01*
X66953589Y-41565000D01*
X66686011Y-41618225D01*
X66433957Y-41722629D01*
X66207114Y-41874201D01*
X66014201Y-42067114D01*
X65862629Y-42293957D01*
X65758225Y-42546011D01*
X65705000Y-42813589D01*
X65705000Y-43086411D01*
X65758225Y-43353989D01*
X65862629Y-43606043D01*
X66014201Y-43832886D01*
X66207114Y-44025799D01*
X66433957Y-44177371D01*
X66686011Y-44281775D01*
X66953589Y-44335000D01*
X66686011Y-44388225D01*
X66433957Y-44492629D01*
X66207114Y-44644201D01*
X66014201Y-44837114D01*
X65862629Y-45063957D01*
X65758225Y-45316011D01*
X65705000Y-45583589D01*
X65705000Y-45856411D01*
X65758225Y-46123989D01*
X65862629Y-46376043D01*
X66014201Y-46602886D01*
X66207114Y-46795799D01*
X66433957Y-46947371D01*
X66686011Y-47051775D01*
X66953589Y-47105000D01*
X66686011Y-47158225D01*
X66433957Y-47262629D01*
X66207114Y-47414201D01*
X66014201Y-47607114D01*
X65862629Y-47833957D01*
X65758225Y-48086011D01*
X65705000Y-48353589D01*
X65705000Y-48626411D01*
X65758225Y-48893989D01*
X65862629Y-49146043D01*
X66014201Y-49372886D01*
X66207114Y-49565799D01*
X66433957Y-49717371D01*
X66686011Y-49821775D01*
X66953589Y-49875000D01*
X66686011Y-49928225D01*
X66433957Y-50032629D01*
X66207114Y-50184201D01*
X66014201Y-50377114D01*
X65932091Y-50500000D01*
X60464802Y-50500000D01*
X57910000Y-47945199D01*
X57910000Y-41947322D01*
X57913676Y-41909999D01*
X57910000Y-41872676D01*
X57910000Y-41872667D01*
X57899003Y-41761014D01*
X57855546Y-41617753D01*
X57784974Y-41485724D01*
X57690001Y-41369999D01*
X57661004Y-41346202D01*
X56915000Y-40600199D01*
X56915000Y-40538061D01*
X56875226Y-40338102D01*
X56797205Y-40149744D01*
X56683937Y-39980226D01*
X56539774Y-39836063D01*
X56370256Y-39722795D01*
X56181898Y-39644774D01*
X55981939Y-39605000D01*
X55778061Y-39605000D01*
X55578102Y-39644774D01*
X55389744Y-39722795D01*
X55220226Y-39836063D01*
X55076063Y-39980226D01*
X54962795Y-40149744D01*
X54884774Y-40338102D01*
X54845000Y-40538061D01*
X32674802Y-40538061D01*
X32696632Y-40523475D01*
X32903475Y-40316632D01*
X33065990Y-40073411D01*
X33177932Y-39803158D01*
X33235000Y-39516260D01*
X33235000Y-39223740D01*
X33177932Y-38936842D01*
X33065990Y-38666589D01*
X32903475Y-38423368D01*
X32696632Y-38216525D01*
X32514466Y-38094805D01*
X32631355Y-38025178D01*
X32847588Y-37830269D01*
X33021641Y-37596920D01*
X33146825Y-37334099D01*
X33191476Y-37186890D01*
X33070155Y-36957000D01*
X31877000Y-36957000D01*
X31877000Y-36977000D01*
X31623000Y-36977000D01*
X31623000Y-36957000D01*
X31603000Y-36957000D01*
X31603000Y-36703000D01*
X31623000Y-36703000D01*
X31623000Y-36683000D01*
X31877000Y-36683000D01*
X31877000Y-36703000D01*
X33070155Y-36703000D01*
X33191476Y-36473110D01*
X33146825Y-36325901D01*
X33021641Y-36063080D01*
X32847588Y-35829731D01*
X32763534Y-35753966D01*
X32844180Y-35729502D01*
X32954494Y-35670537D01*
X33051185Y-35591185D01*
X33130537Y-35494494D01*
X33189502Y-35384180D01*
X33225812Y-35264482D01*
X33238072Y-35140000D01*
X33238072Y-33440000D01*
X33225812Y-33315518D01*
X33189502Y-33195820D01*
X33130537Y-33085506D01*
X33051185Y-32988815D01*
X32954494Y-32909463D01*
X32844180Y-32850498D01*
X32724482Y-32814188D01*
X32600000Y-32801928D01*
X30900000Y-32801928D01*
X30775518Y-32814188D01*
X30660000Y-32849230D01*
X30660000Y-32032279D01*
X30688625Y-31740341D01*
X30764035Y-31490571D01*
X30886522Y-31260208D01*
X31051422Y-31058020D01*
X31252450Y-30891714D01*
X31481954Y-30767622D01*
X31731195Y-30690469D01*
X32021088Y-30660000D01*
X66287886Y-30660000D01*
X65880698Y-31067188D01*
G04 #@! TA.AperFunction,Conductor*
D17*
G36*
X65880698Y-31067188D02*
G01*
X65510252Y-31621601D01*
X65255083Y-32237632D01*
X65125000Y-32891607D01*
X65125000Y-33558393D01*
X65255083Y-34212368D01*
X65510252Y-34828399D01*
X65880698Y-35382812D01*
X66352188Y-35854302D01*
X66906601Y-36224748D01*
X67522632Y-36479917D01*
X68176607Y-36610000D01*
X68843393Y-36610000D01*
X69497368Y-36479917D01*
X70113399Y-36224748D01*
X70667812Y-35854302D01*
X71139302Y-35382812D01*
X71509748Y-34828399D01*
X71764917Y-34212368D01*
X71895000Y-33558393D01*
X71895000Y-32891607D01*
X71764917Y-32237632D01*
X71509748Y-31621601D01*
X71139302Y-31067188D01*
X70732114Y-30660000D01*
X77967721Y-30660000D01*
X78259659Y-30688625D01*
X78509429Y-30764035D01*
X78739792Y-30886522D01*
X78941980Y-31051422D01*
X79108286Y-31252450D01*
X79232378Y-31481954D01*
X79309531Y-31731195D01*
X79340001Y-32021098D01*
X79340000Y-59737721D01*
X79311375Y-60029660D01*
X79235965Y-60279429D01*
X79113477Y-60509794D01*
X78948579Y-60711979D01*
X78747546Y-60878288D01*
X78518046Y-61002378D01*
X78268805Y-61079531D01*
X77978911Y-61110000D01*
X70270166Y-61110000D01*
X70667812Y-60844302D01*
X71139302Y-60372812D01*
X71509748Y-59818399D01*
X71764917Y-59202368D01*
X71895000Y-58548393D01*
X71895000Y-57881607D01*
X71764917Y-57227632D01*
X71509748Y-56611601D01*
X71139302Y-56057188D01*
X70667812Y-55585698D01*
X70113399Y-55215252D01*
X69497368Y-54960083D01*
X68843393Y-54830000D01*
X68176607Y-54830000D01*
X67522632Y-54960083D01*
X66906601Y-55215252D01*
X66352188Y-55585698D01*
X65880698Y-56057188D01*
X65510252Y-56611601D01*
X65255083Y-57227632D01*
X65125000Y-57881607D01*
X65125000Y-58548393D01*
X65255083Y-59202368D01*
X65510252Y-59818399D01*
X65880698Y-60372812D01*
X66352188Y-60844302D01*
X66749834Y-61110000D01*
X32032279Y-61110000D01*
X31740340Y-61081375D01*
X31490571Y-61005965D01*
X31260206Y-60883477D01*
X31058021Y-60718579D01*
X30891712Y-60517546D01*
X30767622Y-60288046D01*
X30690469Y-60038805D01*
X30660000Y-59748911D01*
X30660000Y-42920107D01*
X30803368Y-43063475D01*
X30990000Y-43188179D01*
X30990000Y-44412677D01*
X30986324Y-44450000D01*
X30990000Y-44487322D01*
X30990000Y-44487332D01*
X31000997Y-44598985D01*
X31043466Y-44738989D01*
X31044454Y-44742246D01*
X31115026Y-44874276D01*
X31154871Y-44922826D01*
X31209999Y-44990001D01*
X31239003Y-45013804D01*
X34996200Y-48771002D01*
X35019999Y-48800001D01*
X35135724Y-48894974D01*
X35267753Y-48965546D01*
X35411014Y-49009003D01*
X35522667Y-49020000D01*
X35522675Y-49020000D01*
X35560000Y-49023676D01*
X35597325Y-49020000D01*
X38610000Y-49020000D01*
X38610000Y-49215198D01*
X38060199Y-49765000D01*
X37998061Y-49765000D01*
X37798102Y-49804774D01*
X37609744Y-49882795D01*
X37440226Y-49996063D01*
X37296063Y-50140226D01*
X37182795Y-50309744D01*
X37104774Y-50498102D01*
X37065000Y-50698061D01*
X37065000Y-50901939D01*
X37104774Y-51101898D01*
X37182795Y-51290256D01*
X37296063Y-51459774D01*
X37440226Y-51603937D01*
X37609744Y-51717205D01*
X37798102Y-51795226D01*
X37998061Y-51835000D01*
X38201939Y-51835000D01*
X38401898Y-51795226D01*
X38590256Y-51717205D01*
X38759774Y-51603937D01*
X38903937Y-51459774D01*
X39017205Y-51290256D01*
X39095226Y-51101898D01*
X39135000Y-50901939D01*
X39135000Y-50839801D01*
X39881004Y-50093798D01*
X39910001Y-50070001D01*
X40004974Y-49954276D01*
X40075546Y-49822247D01*
X40119003Y-49678986D01*
X40130000Y-49567333D01*
X40130000Y-49567324D01*
X40133676Y-49530001D01*
X40130000Y-49492678D01*
X40130000Y-48963711D01*
X40173937Y-48919774D01*
X40287205Y-48750256D01*
X40365226Y-48561898D01*
X40405000Y-48361939D01*
X40405000Y-48158061D01*
X40365226Y-47958102D01*
X40287205Y-47769744D01*
X40173937Y-47600226D01*
X40029774Y-47456063D01*
X39860256Y-47342795D01*
X39671898Y-47264774D01*
X39471939Y-47225000D01*
X39268061Y-47225000D01*
X39068102Y-47264774D01*
X38879744Y-47342795D01*
X38710226Y-47456063D01*
X38666289Y-47500000D01*
X35874802Y-47500000D01*
X32510000Y-44135199D01*
X32510000Y-43188178D01*
X32696632Y-43063475D01*
X32903475Y-42856632D01*
X33065990Y-42613411D01*
X33177932Y-42343158D01*
X33235000Y-42056260D01*
X33235000Y-41763740D01*
X33177932Y-41476842D01*
X33065990Y-41206589D01*
X32903475Y-40963368D01*
X32696632Y-40756525D01*
X32522240Y-40640000D01*
X32674802Y-40538061D01*
X54845000Y-40538061D01*
X54845000Y-40741939D01*
X54884774Y-40941898D01*
X54962795Y-41130256D01*
X55076063Y-41299774D01*
X55220226Y-41443937D01*
X55389744Y-41557205D01*
X55578102Y-41635226D01*
X55778061Y-41675000D01*
X55840199Y-41675000D01*
X56390000Y-42224802D01*
X56390001Y-48222667D01*
X56386324Y-48260000D01*
X56400998Y-48408985D01*
X56444454Y-48552246D01*
X56515026Y-48684276D01*
X56569175Y-48750256D01*
X56610000Y-48800001D01*
X56638998Y-48823799D01*
X59586201Y-51771003D01*
X59609999Y-51800001D01*
X59725724Y-51894974D01*
X59857753Y-51965546D01*
X60001014Y-52009003D01*
X60112667Y-52020000D01*
X60112675Y-52020000D01*
X60150000Y-52023676D01*
X60187325Y-52020000D01*
X65932091Y-52020000D01*
X66014201Y-52142886D01*
X66207114Y-52335799D01*
X66433957Y-52487371D01*
X66686011Y-52591775D01*
X66953589Y-52645000D01*
X67226411Y-52645000D01*
X67493989Y-52591775D01*
X67746043Y-52487371D01*
X67972886Y-52335799D01*
X68165799Y-52142886D01*
X68317371Y-51916043D01*
X68421775Y-51663989D01*
X68475000Y-51396411D01*
X68475000Y-51123589D01*
X68421775Y-50856011D01*
X68317371Y-50603957D01*
X68165799Y-50377114D01*
X67972886Y-50184201D01*
X67746043Y-50032629D01*
X67493989Y-49928225D01*
X67226411Y-49875000D01*
X67493989Y-49821775D01*
X67746043Y-49717371D01*
X67972886Y-49565799D01*
X68165799Y-49372886D01*
X68317371Y-49146043D01*
X68421775Y-48893989D01*
X68475000Y-48626411D01*
X68475000Y-48353589D01*
X68421775Y-48086011D01*
X68317371Y-47833957D01*
X68165799Y-47607114D01*
X67972886Y-47414201D01*
X67746043Y-47262629D01*
X67493989Y-47158225D01*
X67226411Y-47105000D01*
X67493989Y-47051775D01*
X67746043Y-46947371D01*
X67972886Y-46795799D01*
X68165799Y-46602886D01*
X68317371Y-46376043D01*
X68421775Y-46123989D01*
X68475000Y-45856411D01*
X68475000Y-45583589D01*
X68421775Y-45316011D01*
X68317371Y-45063957D01*
X68165799Y-44837114D01*
X67972886Y-44644201D01*
X67746043Y-44492629D01*
X67493989Y-44388225D01*
X67226411Y-44335000D01*
X67493989Y-44281775D01*
X67746043Y-44177371D01*
X67972886Y-44025799D01*
X68165799Y-43832886D01*
X68317371Y-43606043D01*
X68421775Y-43353989D01*
X68475000Y-43086411D01*
X68475000Y-42813589D01*
X68421775Y-42546011D01*
X68317371Y-42293957D01*
X68165799Y-42067114D01*
X67972886Y-41874201D01*
X67746043Y-41722629D01*
X67493989Y-41618225D01*
X67226411Y-41565000D01*
X67493989Y-41511775D01*
X67694818Y-41428589D01*
X68545000Y-41428589D01*
X68545000Y-41701411D01*
X68598225Y-41968989D01*
X68702629Y-42221043D01*
X68854201Y-42447886D01*
X69047114Y-42640799D01*
X69273957Y-42792371D01*
X69526011Y-42896775D01*
X69793589Y-42950000D01*
X69526011Y-43003225D01*
X69273957Y-43107629D01*
X69047114Y-43259201D01*
X68854201Y-43452114D01*
X68702629Y-43678957D01*
X68598225Y-43931011D01*
X68545000Y-44198589D01*
X68545000Y-44471411D01*
X68598225Y-44738989D01*
X68702629Y-44991043D01*
X68854201Y-45217886D01*
X69047114Y-45410799D01*
X69273957Y-45562371D01*
X69526011Y-45666775D01*
X69793589Y-45720000D01*
X69526011Y-45773225D01*
X69273957Y-45877629D01*
X69047114Y-46029201D01*
X68854201Y-46222114D01*
X68702629Y-46448957D01*
X68598225Y-46701011D01*
X68545000Y-46968589D01*
X68545000Y-47241411D01*
X68598225Y-47508989D01*
X68702629Y-47761043D01*
X68854201Y-47987886D01*
X69047114Y-48180799D01*
X69273957Y-48332371D01*
X69526011Y-48436775D01*
X69793589Y-48490000D01*
X69526011Y-48543225D01*
X69273957Y-48647629D01*
X69047114Y-48799201D01*
X68854201Y-48992114D01*
X68702629Y-49218957D01*
X68598225Y-49471011D01*
X68545000Y-49738589D01*
X68545000Y-50011411D01*
X68598225Y-50278989D01*
X68702629Y-50531043D01*
X68854201Y-50757886D01*
X69047114Y-50950799D01*
X69273957Y-51102371D01*
X69526011Y-51206775D01*
X69793589Y-51260000D01*
X70066411Y-51260000D01*
X70333989Y-51206775D01*
X70586043Y-51102371D01*
X70812886Y-50950799D01*
X71005799Y-50757886D01*
X71157371Y-50531043D01*
X71261775Y-50278989D01*
X71315000Y-50011411D01*
X71315000Y-49738589D01*
X71261775Y-49471011D01*
X71157371Y-49218957D01*
X71005799Y-48992114D01*
X70812886Y-48799201D01*
X70586043Y-48647629D01*
X70333989Y-48543225D01*
X70066411Y-48490000D01*
X70333989Y-48436775D01*
X70586043Y-48332371D01*
X70812886Y-48180799D01*
X71005799Y-47987886D01*
X71157371Y-47761043D01*
X71261775Y-47508989D01*
X71315000Y-47241411D01*
X71315000Y-46968589D01*
X71261775Y-46701011D01*
X71157371Y-46448957D01*
X71005799Y-46222114D01*
X70812886Y-46029201D01*
X70586043Y-45877629D01*
X70333989Y-45773225D01*
X70066411Y-45720000D01*
X70333989Y-45666775D01*
X70586043Y-45562371D01*
X70812886Y-45410799D01*
X71005799Y-45217886D01*
X71157371Y-44991043D01*
X71261775Y-44738989D01*
X71315000Y-44471411D01*
X71315000Y-44198589D01*
X71261775Y-43931011D01*
X71157371Y-43678957D01*
X71005799Y-43452114D01*
X70812886Y-43259201D01*
X70586043Y-43107629D01*
X70333989Y-43003225D01*
X70066411Y-42950000D01*
X70333989Y-42896775D01*
X70586043Y-42792371D01*
X70812886Y-42640799D01*
X71005799Y-42447886D01*
X71157371Y-42221043D01*
X71261775Y-41968989D01*
X71315000Y-41701411D01*
X71315000Y-41428589D01*
X71261775Y-41161011D01*
X71157371Y-40908957D01*
X71005799Y-40682114D01*
X70812886Y-40489201D01*
X70586043Y-40337629D01*
X70333989Y-40233225D01*
X70066411Y-40180000D01*
X69793589Y-40180000D01*
X69526011Y-40233225D01*
X69273957Y-40337629D01*
X69047114Y-40489201D01*
X68854201Y-40682114D01*
X68702629Y-40908957D01*
X68598225Y-41161011D01*
X68545000Y-41428589D01*
X67694818Y-41428589D01*
X67746043Y-41407371D01*
X67972886Y-41255799D01*
X68165799Y-41062886D01*
X68317371Y-40836043D01*
X68421775Y-40583989D01*
X68475000Y-40316411D01*
X68475000Y-40043589D01*
X68421775Y-39776011D01*
X68317371Y-39523957D01*
X68165799Y-39297114D01*
X67972886Y-39104201D01*
X67746043Y-38952629D01*
X67493989Y-38848225D01*
X67226411Y-38795000D01*
X66953589Y-38795000D01*
X66686011Y-38848225D01*
X66433957Y-38952629D01*
X66207114Y-39104201D01*
X66014201Y-39297114D01*
X65862629Y-39523957D01*
X65758225Y-39776011D01*
X65705000Y-40043589D01*
X65705000Y-40316411D01*
X65758225Y-40583989D01*
X65862629Y-40836043D01*
X66014201Y-41062886D01*
X66207114Y-41255799D01*
X66433957Y-41407371D01*
X66686011Y-41511775D01*
X66953589Y-41565000D01*
X66686011Y-41618225D01*
X66433957Y-41722629D01*
X66207114Y-41874201D01*
X66014201Y-42067114D01*
X65862629Y-42293957D01*
X65758225Y-42546011D01*
X65705000Y-42813589D01*
X65705000Y-43086411D01*
X65758225Y-43353989D01*
X65862629Y-43606043D01*
X66014201Y-43832886D01*
X66207114Y-44025799D01*
X66433957Y-44177371D01*
X66686011Y-44281775D01*
X66953589Y-44335000D01*
X66686011Y-44388225D01*
X66433957Y-44492629D01*
X66207114Y-44644201D01*
X66014201Y-44837114D01*
X65862629Y-45063957D01*
X65758225Y-45316011D01*
X65705000Y-45583589D01*
X65705000Y-45856411D01*
X65758225Y-46123989D01*
X65862629Y-46376043D01*
X66014201Y-46602886D01*
X66207114Y-46795799D01*
X66433957Y-46947371D01*
X66686011Y-47051775D01*
X66953589Y-47105000D01*
X66686011Y-47158225D01*
X66433957Y-47262629D01*
X66207114Y-47414201D01*
X66014201Y-47607114D01*
X65862629Y-47833957D01*
X65758225Y-48086011D01*
X65705000Y-48353589D01*
X65705000Y-48626411D01*
X65758225Y-48893989D01*
X65862629Y-49146043D01*
X66014201Y-49372886D01*
X66207114Y-49565799D01*
X66433957Y-49717371D01*
X66686011Y-49821775D01*
X66953589Y-49875000D01*
X66686011Y-49928225D01*
X66433957Y-50032629D01*
X66207114Y-50184201D01*
X66014201Y-50377114D01*
X65932091Y-50500000D01*
X60464802Y-50500000D01*
X57910000Y-47945199D01*
X57910000Y-41947322D01*
X57913676Y-41909999D01*
X57910000Y-41872676D01*
X57910000Y-41872667D01*
X57899003Y-41761014D01*
X57855546Y-41617753D01*
X57784974Y-41485724D01*
X57690001Y-41369999D01*
X57661004Y-41346202D01*
X56915000Y-40600199D01*
X56915000Y-40538061D01*
X56875226Y-40338102D01*
X56797205Y-40149744D01*
X56683937Y-39980226D01*
X56539774Y-39836063D01*
X56370256Y-39722795D01*
X56181898Y-39644774D01*
X55981939Y-39605000D01*
X55778061Y-39605000D01*
X55578102Y-39644774D01*
X55389744Y-39722795D01*
X55220226Y-39836063D01*
X55076063Y-39980226D01*
X54962795Y-40149744D01*
X54884774Y-40338102D01*
X54845000Y-40538061D01*
X32674802Y-40538061D01*
X32696632Y-40523475D01*
X32903475Y-40316632D01*
X33065990Y-40073411D01*
X33177932Y-39803158D01*
X33235000Y-39516260D01*
X33235000Y-39223740D01*
X33177932Y-38936842D01*
X33065990Y-38666589D01*
X32903475Y-38423368D01*
X32696632Y-38216525D01*
X32514466Y-38094805D01*
X32631355Y-38025178D01*
X32847588Y-37830269D01*
X33021641Y-37596920D01*
X33146825Y-37334099D01*
X33191476Y-37186890D01*
X33070155Y-36957000D01*
X31877000Y-36957000D01*
X31877000Y-36977000D01*
X31623000Y-36977000D01*
X31623000Y-36957000D01*
X31603000Y-36957000D01*
X31603000Y-36703000D01*
X31623000Y-36703000D01*
X31623000Y-36683000D01*
X31877000Y-36683000D01*
X31877000Y-36703000D01*
X33070155Y-36703000D01*
X33191476Y-36473110D01*
X33146825Y-36325901D01*
X33021641Y-36063080D01*
X32847588Y-35829731D01*
X32763534Y-35753966D01*
X32844180Y-35729502D01*
X32954494Y-35670537D01*
X33051185Y-35591185D01*
X33130537Y-35494494D01*
X33189502Y-35384180D01*
X33225812Y-35264482D01*
X33238072Y-35140000D01*
X33238072Y-33440000D01*
X33225812Y-33315518D01*
X33189502Y-33195820D01*
X33130537Y-33085506D01*
X33051185Y-32988815D01*
X32954494Y-32909463D01*
X32844180Y-32850498D01*
X32724482Y-32814188D01*
X32600000Y-32801928D01*
X30900000Y-32801928D01*
X30775518Y-32814188D01*
X30660000Y-32849230D01*
X30660000Y-32032279D01*
X30688625Y-31740341D01*
X30764035Y-31490571D01*
X30886522Y-31260208D01*
X31051422Y-31058020D01*
X31252450Y-30891714D01*
X31481954Y-30767622D01*
X31731195Y-30690469D01*
X32021088Y-30660000D01*
X66287886Y-30660000D01*
X65880698Y-31067188D01*
G37*
G04 #@! TD.AperFunction*
M02*
