%FSLAX45Y45*%
G04 Gerber Fmt 4.5, Leading zero omitted, Abs format (unit mm)*
G04 Created by KiCad (PCBNEW (5.1.10)-1) date 2022-10-05 22:38:59*
%MOMM*%
%LPD*%
G01*
G04 APERTURE LIST*
%TA.AperFunction,Profile*%
%ADD10C,0.050000*%
%TD*%
%ADD11C,0.200000*%
%ADD12C,0.300000*%
G04 APERTURE END LIST*
D10*
X8000000Y-5977000D02*
X8000000Y-3200000D01*
X7800000Y-6177000D02*
X3200000Y-6177000D01*
X8000000Y-5977000D02*
G75*
G02*
X7800000Y-6177000I-200000J0D01*
G01*
X3000000Y-3200000D02*
X3000000Y-5977000D01*
X7800000Y-3000000D02*
X3200000Y-3000000D01*
X7800000Y-3000000D02*
G75*
G02*
X8000000Y-3200000I0J-200000D01*
G01*
X3200000Y-6177000D02*
G75*
G02*
X3000000Y-5977000I0J200000D01*
G01*
X3000000Y-3200000D02*
G75*
G02*
X3200000Y-3000000I200000J0D01*
G01*
D11*
D12*
X3283928Y-6645214D02*
X3283928Y-6345214D01*
X3355357Y-6345214D01*
X3398214Y-6359500D01*
X3426786Y-6388071D01*
X3441071Y-6416643D01*
X3455357Y-6473786D01*
X3455357Y-6516643D01*
X3441071Y-6573786D01*
X3426786Y-6602357D01*
X3398214Y-6630929D01*
X3355357Y-6645214D01*
X3283928Y-6645214D01*
X3583928Y-6645214D02*
X3583928Y-6445214D01*
X3583928Y-6502357D02*
X3598214Y-6473786D01*
X3612500Y-6459500D01*
X3641071Y-6445214D01*
X3669643Y-6445214D01*
X3769643Y-6645214D02*
X3769643Y-6445214D01*
X3769643Y-6345214D02*
X3755357Y-6359500D01*
X3769643Y-6373786D01*
X3783928Y-6359500D01*
X3769643Y-6345214D01*
X3769643Y-6373786D01*
X3955357Y-6645214D02*
X3926786Y-6630929D01*
X3912500Y-6602357D01*
X3912500Y-6345214D01*
X4112500Y-6645214D02*
X4083928Y-6630929D01*
X4069643Y-6602357D01*
X4069643Y-6345214D01*
X4455357Y-6645214D02*
X4455357Y-6345214D01*
X4555357Y-6559500D01*
X4655357Y-6345214D01*
X4655357Y-6645214D01*
X4926786Y-6645214D02*
X4926786Y-6488071D01*
X4912500Y-6459500D01*
X4883928Y-6445214D01*
X4826786Y-6445214D01*
X4798214Y-6459500D01*
X4926786Y-6630929D02*
X4898214Y-6645214D01*
X4826786Y-6645214D01*
X4798214Y-6630929D01*
X4783928Y-6602357D01*
X4783928Y-6573786D01*
X4798214Y-6545214D01*
X4826786Y-6530929D01*
X4898214Y-6530929D01*
X4926786Y-6516643D01*
X5069643Y-6445214D02*
X5069643Y-6745214D01*
X5069643Y-6459500D02*
X5098214Y-6445214D01*
X5155357Y-6445214D01*
X5183928Y-6459500D01*
X5198214Y-6473786D01*
X5212500Y-6502357D01*
X5212500Y-6588071D01*
X5198214Y-6616643D01*
X5183928Y-6630929D01*
X5155357Y-6645214D01*
X5098214Y-6645214D01*
X5069643Y-6630929D01*
X5341071Y-6616643D02*
X5355357Y-6630929D01*
X5341071Y-6645214D01*
X5326786Y-6630929D01*
X5341071Y-6616643D01*
X5341071Y-6645214D01*
X5341071Y-6459500D02*
X5355357Y-6473786D01*
X5341071Y-6488071D01*
X5326786Y-6473786D01*
X5341071Y-6459500D01*
X5341071Y-6488071D01*
M02*
