M48
; DRILL file {KiCad (5.1.10)-1} date 10/05/22 22:38:56
; FORMAT={-:-/ absolute / metric / decimal}
; #@! TF.CreationDate,2022-10-05T22:38:56+02:00
; #@! TF.GenerationSoftware,Kicad,Pcbnew,(5.1.10)-1
; #@! TF.FileFunction,Plated,1,2,PTH
FMAT,2
METRIC
T1C0.400
T2C1.000
T3C3.900
%
G90
G05
T1
X38.1Y-50.8
X38.797Y-35.725
X39.37Y-48.26
X42.905Y-49.425
X55.88Y-40.64
X64.77Y-44.45
X64.77Y-48.26
X64.77Y-52.07
T2
X31.75Y-34.29
X31.75Y-36.83
X31.75Y-39.37
X31.75Y-41.91
X67.09Y-40.18
X67.09Y-42.95
X67.09Y-45.72
X67.09Y-48.49
X67.09Y-51.26
X69.93Y-41.565
X69.93Y-44.335
X69.93Y-47.105
X69.93Y-49.875
T3
X68.51Y-33.225
X68.51Y-58.215
T0
M30
